<svg xmlns="http://www.w3.org/2000/svg" width="466" height="311" fill="none" viewBox="0 0 466 311">
    <path fill="#FF1E1E" d="M218.867 239.138l-88.346 20.671-90.964-36.545c16.8-28.616 32.678-52.298 47.636-71.046 11.254-14.107 29.676-29.581 55.266-46.424l60.172-30.905 56.533-15.686 43.014-4.885-14.935 33.966-48.744 79.839-39.444 39.396-40.377 11.553 60.189 20.066z"/>
    <path fill="#BF0000" d="M44.889 220.87l57.638-29.591 103.025 46.805c-37.408 7.297-64.16 13.717-80.257 19.261-11.376-2.737-38.178-14.896-80.406-36.475z"/>
    <path fill="#3C0000" d="M98.978 251.59c14.978-6.92 40.243-14.595 75.794-23.028l19.314 13.303c-27.818 6.815-47.924 12.26-60.319 16.338-10.247.034-19.719.01-34.79-6.613z"/>
    <path fill="#3C0000" fill-rule="evenodd" d="M300.063 47.153l1.396 3.61c21.856 56.502 25.505 102.033 9.001 135.562-16.628 33.779-52.821 53.682-106.407 60.974-16.732 2.277-43.635 8.192-80.87 17.831l-1.7.441L33 225.799l1.971-4.53c14.176-32.574 34.954-61.155 62.276-85.723 55.189-49.622 121.572-78.926 198.97-87.945l3.846-.448zM293.517 58c-73.796 9.305-136.934 37.642-189.584 84.981-25.024 22.501-44.265 48.418-57.774 77.768l76.22 34.26c36.402-9.393 63.227-15.292 80.326-17.619 52.068-7.086 84.271-26.002 98.783-55.482 14.315-29.081 12.265-70.062-7.971-123.908z" clip-rule="evenodd"/>
    <path fill="#FF1E1E" d="M110.219 192.721l20.106-32.856-28.913-59.862 40.7-40.536c14.727-6.383 24.182-9.54 28.364-9.47 6.505.111 39.489 2.609 44.234 1.338 9.322-2.497 18.033-7.079 26.134-13.745l46.277-11.08-14.937 33.966-48.743 79.84-39.444 39.396-40.378 11.552-33.4 1.457z"/>
    <path fill="#BF0000" d="M113.725 192.103l159.802 85.536 43.605 10.957 40.66-7.169 26.812-26.43 39.572-77.43-15.836-17.187-50.352 78.882-140.126-94.832-27.641 29.948-29.074 13.796-17.526 3.09-29.896.839z"/>
    <path fill="#FF1E1E" d="M383.345 220.292c12.455-22.407 22.416-40.805 29.881-55.192L281.74 24.759l-1.805 19.516L205.602 163.9l147.041 95.18c8.012-3.45 18.246-16.38 30.702-38.788z"/>
    <path stroke="#3C0000" stroke-width="10" d="M141.129 191.353c34.248-.428 63.658-21.234 88.23-62.418l55.602-99.124"/>
    <path fill="#BF0000" d="M141.129 191.353c27.486-.288 49.707-8.754 66.665-25.398l-10.724 30.179-56.11 2.086c-4.343-3.459-4.287-5.748.169-6.867z"/>
    <path fill="#FF1E1E" d="M141.13 191.353c37.937-6.689 67.562-36.875 78.124-55.895 7.041-12.68-13.126-6.215-60.501 19.395l-24.317 28.332c1.926 4.41 4.157 7.133 6.694 8.168z"/>
    <path fill="#3C0000" d="M235.554 254.783c47.058 26.443 80.093 23.405 113.202 2.607 8.693-5.461 29.498-35.216 62.415-89.266l2.054-3.024 10.95 12.467-40.88 82.93-33.963 25.314-39.492 4.071c-34.62-9.399-59.383-21.098-74.287-35.1l.001.001z"/>
    <path fill="#BF0000" d="M167.626 75.343c-25.406 6.627-44.776 19.829-58.112 39.604l25.692 42.123-10.972 18.873c19.524 3.347 38.001-1.94 55.431-15.864 26.145-20.884 24.514-35.19 20.785-56.34-1.074-6.092-22.429-31.108-32.824-28.396z"/>
    <path fill="#3C0000" d="M287.321 30.718c-31.787 7.71-57.14 18.134-84.457 34.9l-10.77-5.057a378.84 378.84 0 0 1 5.373-3.365c-9.131-2.342-20.441-1.904-34.222 1.784-26.884 7.194-43.98 18.663-55.202 39.977l25.754 48.658c3.875 1.032 10.885 1.559 19.003.301 8.58-1.33 17.86-4.575 25.496-10.739 5.314-4.289 10.82-9.034 15.082-13.972 4.349-5.039 6.843-9.645 7.161-13.638.341-4.267-.832-9.487-4.374-16.72-3.541-7.233-9.231-16.045-17.389-27.379l.06-.044.02.036c23.3 15.595 39.194 40.565 26.351 58.586l-.002.142c-1.296 1.946-2.747 3.802-4.257 5.551-4.878 5.651-10.969 10.859-16.371 15.22-9.35 7.546-20.42 11.316-30.246 12.839-9.731 1.508-18.784.893-24.329-.876l.358-1.121-2.769 1.465-30.794-58.18 1.126-2.29c12.791-26.013 32.931-39.5 62.737-47.476 18.732-5.013 34.917-4.895 47.96 1.308C232.838 37 256.453 27.916 284.964 21l2.357 9.718zM165.788 225.501c54.73-2.97 88.489-37.492 115.276-94.364-31.928 50.739-64.877 81.614-115.818 84.379l.542 9.985zm39.678 23.467c54.73-2.97 86.055-34.017 112.842-90.889-31.928 50.739-62.443 78.139-113.384 80.903l.542 9.986zm42.632 22.945c54.73-2.97 83.622-30.541 110.409-87.413-31.928 50.739-60.01 74.663-110.95 77.428l.541 9.985z"/>
    <path fill="#3C0000" fill-rule="evenodd" d="M419.255 178.376l-139.33-147.18 6.136-9.437 145.996 155.584-2.289 3.11c-8.729 13.648-15.353 26.486-21.363 38.425a3217.43 3217.43 0 0 0-1.847 3.677c-5.266 10.493-10.233 20.388-15.84 29.244-6.308 9.961-13.548 18.817-23.255 26.13-9.715 7.319-21.677 12.924-37.23 16.69-5.694 1.378-12.452 1.126-19.74-.132-7.348-1.269-15.594-3.627-24.432-6.768-17.673-6.281-38.169-15.858-59.354-26.751-26.736-13.746-55.005-29.826-80.335-44.233-14.681-8.35-28.374-16.138-40.208-22.585l-4.725-2.574 26.413-41.024 8.408 5.414-20.595 31.988c10.982 6.052 23.167 12.984 36.044 20.31 25.156 14.311 52.953 30.125 79.571 43.811 21.044 10.82 41.079 20.161 58.13 26.221 8.524 3.03 16.189 5.197 22.785 6.337 6.657 1.149 11.878 1.188 15.684.266 14.447-3.497 25.11-8.586 33.567-14.957 8.465-6.377 14.943-14.207 20.823-23.493 5.325-8.408 10.058-17.837 15.37-28.417l1.834-3.65c5.562-11.05 11.783-23.142 19.782-36.006z" clip-rule="evenodd"/>
</svg>
